<?xml version="1.0" encoding="utf-8"?>
<!-- Generator: Adobe Illustrator 19.0.0, SVG Export Plug-In . SVG Version: 6.00 Build 0)  -->
<svg version="1.1" id="Layer_1" xmlns="http://www.w3.org/2000/svg" xmlns:xlink="http://www.w3.org/1999/xlink" x="0px" y="0px"
	 viewBox="0 0 603 598" style="enable-background:new 0 0 603 598;" xml:space="preserve">
<style type="text/css">
	.st0{fill:none;stroke:#FFFFFF;stroke-width:4;stroke-miterlimit:10;}
	.st1{fill:#FFFFFF;}
	.st2{fill:none;stroke:#FFFFFF;stroke-width:7;stroke-miterlimit:10;}
</style>
<circle id="XMLID_2_" class="st0" cx="301.5" cy="299" r="290.3"/>
<circle id="XMLID_3_" class="st1" cx="389.8" cy="167.6" r="61.1"/>
<circle id="XMLID_4_" class="st1" cx="196.3" cy="150.7" r="28.9"/>
<circle id="XMLID_5_" class="st1" cx="115.8" cy="352" r="35.8"/>
<circle id="XMLID_6_" class="st1" cx="278.9" cy="299" r="35.8"/>
<circle id="XMLID_7_" class="st1" cx="364.5" cy="485.7" r="35.8"/>
<circle id="XMLID_8_" class="st1" cx="478.2" cy="370.6" r="22.5"/>
<circle id="XMLID_9_" class="st1" cx="225.1" cy="439.2" r="22.5"/>
<g id="XMLID_10_">
	<line id="XMLID_11_" class="st2" x1="196.3" y1="150.7" x2="389.8" y2="167.6"/>
	<line id="XMLID_12_" class="st2" x1="389.8" y1="167.6" x2="478.2" y2="370.6"/>
	<line id="XMLID_13_" class="st2" x1="478.2" y1="370.6" x2="364.5" y2="485.7"/>
	<line id="XMLID_14_" class="st2" x1="364.5" y1="485.7" x2="225.1" y2="439.2"/>
	<line id="XMLID_15_" class="st2" x1="278.9" y1="299" x2="115.8" y2="352"/>
	<line id="XMLID_16_" class="st2" x1="225.1" y1="439.2" x2="196.3" y2="150.7"/>
	<line id="XMLID_17_" class="st2" x1="478.2" y1="370.6" x2="278.9" y2="299"/>
	<line id="XMLID_18_" class="st2" x1="278.9" y1="299" x2="389.8" y2="167.6"/>
	<line id="XMLID_19_" class="st2" x1="364.5" y1="485.7" x2="278.9" y2="299"/>
	<line id="XMLID_20_" class="st2" x1="225.1" y1="439.2" x2="115.8" y2="352"/>
</g>
</svg>
